<svg width="135" height="40" viewBox="0 0 135 40" fill="none" xmlns="http://www.w3.org/2000/svg">
<path fill-rule="evenodd" clip-rule="evenodd" d="M135 35.9904C135 38.2056 133.262 40 131.113 40H3.89257C1.744 40 0 38.2056 0 35.9904V4.01487C0 1.80067 1.744 0 3.89257 0H131.111C133.262 0 135 1.80067 135 4.01487V35.9904Z" fill="#192133"/>
<path fill-rule="evenodd" clip-rule="evenodd" d="M36.1856 8.59892C36.521 7.30014 37.8115 6.29879 39.1648 6.36324C39.996 6.31697 40.799 6.69041 41.3823 7.26875C41.1973 7.45216 41.0122 7.63723 40.8288 7.82229C40.0109 6.93331 38.5072 6.88539 37.643 7.72976C36.5276 8.68649 36.6995 10.6875 37.9569 11.4509C39.1781 12.3102 41.2072 11.5732 41.3245 10.0051H39.1615V9.22021C40.1364 9.22352 41.1113 9.21195 42.0863 9.22682C42.1507 10.0415 42.0648 10.9437 41.4897 11.5765C40.3562 12.9348 38.0131 12.905 36.8697 11.5732C36.1211 10.7916 35.9559 9.6234 36.1856 8.59892Z" fill="#B1C3D3"/>
<path fill-rule="evenodd" clip-rule="evenodd" d="M42.962 6.49219C44.1336 6.49384 45.3035 6.49219 46.4734 6.49384V7.23741C45.5645 7.23907 44.6557 7.23741 43.7486 7.23907C43.7469 7.85706 43.7469 8.4767 43.7469 9.09635H46.1842V9.83992C45.3729 9.84158 44.5599 9.83992 43.7469 9.83992V11.6559C44.6557 11.6592 45.5645 11.6559 46.4734 11.6575V12.4424H42.962C42.962 10.4596 42.9604 8.4767 42.962 6.49219Z" fill="#B1C3D3"/>
<path fill-rule="evenodd" clip-rule="evenodd" d="M47.0517 6.4944C48.4149 6.49275 49.7781 6.49275 51.1413 6.4944V7.23798H49.4889C49.4873 8.97298 49.4906 10.708 49.4889 12.443H48.704V7.23798H47.0517C47.05 6.99012 47.05 6.74226 47.0517 6.4944Z" fill="#B1C3D3"/>
<path fill-rule="evenodd" clip-rule="evenodd" d="M53.7042 6.49219C53.9769 6.49219 54.2528 6.49384 54.5288 6.49219V12.4424H53.7026C53.7026 10.4596 53.7009 8.4767 53.7042 6.49219Z" fill="#B1C3D3"/>
<path fill-rule="evenodd" clip-rule="evenodd" d="M55.1897 6.49219C56.5529 6.49384 57.9161 6.49219 59.2794 6.49384V7.23741C58.7291 7.23741 58.1789 7.23741 57.6286 7.23907C57.6253 8.97407 57.6303 10.7091 57.6253 12.4441C57.3642 12.4424 57.1032 12.4424 56.8421 12.4424V7.23741C56.2902 7.23741 55.7399 7.23741 55.1897 7.23907V6.49219Z" fill="#B1C3D3"/>
<path fill-rule="evenodd" clip-rule="evenodd" d="M63.521 6.53185C64.5868 6.17328 65.8889 6.34182 66.7052 7.16141C67.9891 8.31147 68.0106 10.5653 66.7465 11.7369C65.7683 12.7266 64.0828 12.8489 62.9328 12.0987C61.9033 11.446 61.3861 10.1489 61.5861 8.9592C61.7315 7.88185 62.4949 6.90529 63.521 6.53185ZM64.0019 7.20437C64.8958 6.93173 65.9335 7.30516 66.4524 8.08179C67.1645 9.1294 66.9316 10.7884 65.8096 11.4593C64.8661 12.0971 63.4731 11.8311 62.8221 10.9008C61.8819 9.67634 62.4618 7.60259 64.0019 7.20437Z" fill="#B1C3D3"/>
<path fill-rule="evenodd" clip-rule="evenodd" d="M68.5757 6.49219C68.8929 6.49384 69.2118 6.49384 69.5308 6.49714C70.4792 8.01073 71.4227 9.52762 72.3729 11.0396C72.3778 9.52432 72.3729 8.00908 72.3745 6.49219C72.6356 6.49219 72.8967 6.49384 73.1594 6.49384V12.4408C72.8834 12.4424 72.6091 12.4424 72.3349 12.4441C71.3054 10.8495 70.347 9.21036 69.3011 7.62572C69.43 9.22689 69.3259 10.838 69.3589 12.4441C69.0962 12.4424 68.8351 12.4424 68.574 12.4424C68.574 10.4579 68.5724 8.47505 68.5757 6.49219Z" fill="#B1C3D3"/>
<path fill-rule="evenodd" clip-rule="evenodd" d="M37.7009 18.5406C39.1318 17.1724 41.1709 16.4767 43.1422 16.6833C44.6525 16.7989 46.0735 17.5128 47.1558 18.5587C46.7064 19.0082 46.2421 19.4444 45.8257 19.9269C44.7979 18.99 43.4033 18.4315 42.002 18.5951C40.2323 18.7355 38.6163 19.9567 37.9669 21.6024C37.1804 23.4614 37.6265 25.783 39.1104 27.166C40.8421 28.9242 43.9915 28.9969 45.7579 27.2536C46.4337 26.6373 46.7328 25.7351 46.8848 24.8576C45.3994 24.8097 43.9122 24.8494 42.4251 24.8362V22.8946C44.5269 22.888 46.6271 22.9029 48.7289 22.888C48.9801 24.4445 48.7735 26.1134 47.9886 27.4965C47.0501 29.096 45.32 30.1849 43.4793 30.3816C41.7641 30.6278 39.963 30.213 38.5337 29.2299C36.6632 27.9674 35.4553 25.7417 35.5214 23.4729C35.5082 21.6173 36.3426 19.7947 37.7009 18.5406Z" fill="#B1C3D3"/>
<path fill-rule="evenodd" clip-rule="evenodd" d="M79.3146 17.3174H81.2974V30.2886H79.3146V17.3174Z" fill="#B1C3D3"/>
<path fill-rule="evenodd" clip-rule="evenodd" d="M95.1774 17.317C96.6662 17.3187 98.155 17.3137 99.6455 17.3187C100.706 17.3286 101.78 17.669 102.588 18.3696C103.499 19.128 104.006 20.3227 103.938 21.5025C103.928 22.8938 103.063 24.1992 101.835 24.8271C100.417 25.6153 98.7482 25.3129 97.2032 25.3724C97.1999 26.9835 97.2016 28.5946 97.2016 30.2056C96.5258 30.2056 95.8516 30.2056 95.1791 30.2073C95.1758 25.9094 95.1774 21.6132 95.1774 17.317ZM97.2016 19.3015C98.1236 19.3131 99.0457 19.2751 99.9677 19.3164C101.195 19.3809 102.193 20.7623 101.754 21.9354C101.506 22.7137 100.774 23.3168 99.9528 23.3714C99.0357 23.4176 98.1187 23.3747 97.2016 23.3879V19.3015Z" fill="#B1C3D3"/>
<path fill-rule="evenodd" clip-rule="evenodd" d="M105.505 30.206C105.505 25.9098 105.503 21.6136 105.505 17.3174H107.612V30.206C106.908 30.206 106.205 30.2077 105.505 30.206Z" fill="#B1C3D3"/>
<path fill-rule="evenodd" clip-rule="evenodd" d="M111.579 21.1824C112.995 20.7627 114.633 20.9197 115.859 21.7773C116.822 22.4482 117.323 23.6362 117.318 24.7896C117.323 26.594 117.318 28.4001 117.319 30.2061C116.63 30.2061 115.941 30.2078 115.252 30.2061C115.251 29.8393 115.252 29.4741 115.262 29.1073C113.963 31.1562 110.505 30.8274 109.406 28.7487C108.861 27.6928 109.013 26.2949 109.869 25.4456C111.278 24.0791 113.56 23.9287 115.292 24.7367C115.239 22.7125 112.085 22.2119 111.194 23.9138C110.566 23.6313 109.91 23.4115 109.304 23.086C109.783 22.1871 110.588 21.4617 111.579 21.1824ZM111.905 26.3197C112.952 25.7645 114.249 25.895 115.282 26.4271C115.082 27.711 113.815 28.7718 112.499 28.5686C111.957 28.4893 111.351 28.1902 111.221 27.6119C111.125 27.0914 111.442 26.5543 111.905 26.3197Z" fill="#B1C3D3"/>
<path fill-rule="evenodd" clip-rule="evenodd" d="M53.2961 21.602C54.8162 21.3046 56.4984 21.7706 57.546 22.9388C59.1786 24.6788 59.0414 27.7406 57.2221 29.2988C55.5202 30.8438 52.6368 30.7695 51.0273 29.1237C49.2345 27.3837 49.3485 24.1252 51.2983 22.5455C51.87 22.0696 52.5657 21.7474 53.2961 21.602ZM53.4613 23.4279C54.9864 22.8479 56.6901 24.1963 56.6801 25.7776C56.8222 27.0351 55.9399 28.3256 54.6874 28.5751C53.5059 28.851 52.2666 28.0331 51.8981 26.9111C51.4189 25.5826 52.0601 23.8707 53.4613 23.4279Z" fill="#B1C3D3"/>
<path fill-rule="evenodd" clip-rule="evenodd" d="M62.8782 21.6121C64.4364 21.2899 66.1764 21.7708 67.2323 22.9919C68.7954 24.7219 68.6748 27.6946 66.9133 29.2445C65.1321 30.9481 61.9529 30.7564 60.4029 28.8347C58.9141 27.0865 59.0827 24.1717 60.8226 22.6515C61.396 22.1277 62.1165 21.7674 62.8782 21.6121ZM63.1839 23.4C64.5174 22.9605 66.0029 23.9486 66.2573 25.2936C66.6143 26.6139 65.8376 28.1969 64.4711 28.5373C63.1938 28.9388 61.7909 28.0052 61.4853 26.7411C61.0788 25.4126 61.8009 23.7834 63.1839 23.4Z" fill="#B1C3D3"/>
<path fill-rule="evenodd" clip-rule="evenodd" d="M71.2906 22.2247C72.6555 21.2531 74.7292 21.2398 75.9371 22.4808C75.9305 22.2461 75.9272 22.0115 75.9239 21.7785H77.8275V29.9248C77.8043 31.0963 77.5036 32.3439 76.6675 33.2097C75.6199 34.3086 73.9361 34.5862 72.5035 34.2491C71.2014 33.95 70.1653 32.9371 69.6234 31.7424C70.2 31.4945 70.78 31.2533 71.36 31.0154C71.598 31.4433 71.8657 31.8746 72.2787 32.1588C73.2636 32.9073 74.8961 32.6942 75.5521 31.6102C75.9685 30.9592 75.9338 30.1578 75.9371 29.4158C75.1936 30.204 74.0551 30.5543 72.9926 30.3709C71.2774 30.1297 69.8382 28.74 69.4317 27.0728C68.9756 25.2766 69.7242 23.2359 71.2906 22.2247ZM73.3776 23.3285C75.068 23.0195 76.3717 24.8701 76.0396 26.4217C75.9272 27.7106 74.678 28.8639 73.3545 28.588C72.1168 28.4013 71.2427 27.1686 71.2939 25.9508C71.2658 24.7346 72.1416 23.5119 73.3776 23.3285Z" fill="#B1C3D3"/>
<path fill-rule="evenodd" clip-rule="evenodd" d="M83.743 22.6136C84.9294 21.4784 86.833 21.1826 88.3052 21.9146C89.4586 22.5045 90.2022 23.6645 90.569 24.8773C88.5961 25.6953 86.6198 26.5066 84.6502 27.3311C85.0071 27.9326 85.554 28.4597 86.2678 28.5754C87.3121 28.8232 88.3945 28.2647 88.9596 27.3873C89.4801 27.7294 89.9989 28.0714 90.5112 28.4267C89.9725 29.1967 89.2223 29.8329 88.33 30.1468C86.8115 30.697 84.9542 30.4046 83.786 29.2512C81.9568 27.5592 81.9799 24.3453 83.743 22.6136ZM84.3064 25.7994C84.3031 24.7005 85.0219 23.6298 86.1043 23.3472C86.9007 23.0911 87.8409 23.4315 88.254 24.1668C86.9354 24.7038 85.6234 25.2607 84.3064 25.7994Z" fill="#B1C3D3"/>
<path fill-rule="evenodd" clip-rule="evenodd" d="M118 21.4514C118.764 21.4448 119.529 21.4481 120.294 21.4481C121.128 23.4624 121.956 25.4799 122.789 27.4958C123.562 25.4816 124.342 23.469 125.11 21.453C125.9 21.4431 126.692 21.4497 127.483 21.4481C125.634 25.7179 123.769 29.9827 121.913 34.2508C121.17 34.2557 120.426 34.2574 119.682 34.2491C120.366 32.8049 121.032 31.3508 121.72 29.9083C120.487 27.086 119.236 24.272 118 21.4514Z" fill="#B1C3D3"/>
<path d="M24.8259 17.1357L12.4952 10.3513C12.1465 10.1602 11.8229 10.116 11.5626 10.1964L21.6625 20.3018L24.8259 17.1357Z" fill="#D7E69D"/>
<path d="M24.8422 23.4834L29.0509 21.1664C29.9046 20.6943 29.9046 19.9278 29.0509 19.4594L24.8267 17.1357L21.6625 20.3018L24.8422 23.4834Z" fill="#FEEB74"/>
<path d="M11.5619 10.1953C11.1874 10.3126 10.9441 10.6932 10.9441 11.2679L10.9463 29.3571C10.9463 29.9251 11.1822 30.2991 11.5457 30.4238L21.6625 20.3007L11.5619 10.1953Z" fill="#7DBEBB"/>
<path d="M11.5457 30.4251C11.8088 30.5143 12.1384 30.4716 12.4952 30.2768L24.8414 23.4836L21.6625 20.3027L11.5457 30.4251Z" fill="#F36F56"/>
</svg>
