<svg width="135" height="40" viewBox="0 0 135 40" fill="none" xmlns="http://www.w3.org/2000/svg">
<path fill-rule="evenodd" clip-rule="evenodd" d="M135 35.9904C135 38.2056 133.262 40 131.113 40H3.89257C1.744 40 0 38.2056 0 35.9904V4.01487C0 1.80067 1.744 0 3.89257 0H131.111C133.262 0 135 1.80067 135 4.01487V35.9904Z" fill="#192133"/>
<path d="M30.128 19.7842C30.099 16.5612 32.767 14.9932 32.889 14.9202C31.378 12.7172 29.036 12.4162 28.213 12.3922C26.246 12.1852 24.338 13.5692 23.336 13.5692C22.314 13.5692 20.771 12.4122 19.108 12.4462C16.968 12.4792 14.966 13.7182 13.868 15.6422C11.602 19.5652 13.292 25.3302 15.463 28.5012C16.549 30.0542 17.818 31.7882 19.479 31.7272C21.104 31.6602 21.711 30.6912 23.672 30.6912C25.615 30.6912 26.185 31.7272 27.879 31.6882C29.623 31.6602 30.721 30.1282 31.769 28.5612C33.024 26.7812 33.528 25.0282 33.548 24.9382C33.507 24.9242 30.161 23.6472 30.128 19.7842Z" fill="white"/>
<path d="M26.9279 10.3058C27.8019 9.2128 28.3999 7.7258 28.2339 6.2168C26.9689 6.2728 25.3869 7.0918 24.4759 8.1608C23.6699 9.1028 22.9499 10.6468 23.1359 12.0988C24.5569 12.2048 26.0159 11.3818 26.9279 10.3058Z" fill="white"/>
<path fill-rule="evenodd" clip-rule="evenodd" d="M53.645 30.5043H51.374L50.13 26.5953H45.806L44.621 30.5043H42.41L46.694 17.1963H49.34L53.645 30.5043ZM49.755 24.9553L48.63 21.4803C48.511 21.1253 48.288 20.2893 47.959 18.9733H47.919C47.788 19.5393 47.577 20.3753 47.287 21.4803L46.182 24.9553H49.755Z" fill="#B1C3D3"/>
<path fill-rule="evenodd" clip-rule="evenodd" d="M64.662 25.5879C64.662 27.2199 64.221 28.5099 63.339 29.4569C62.549 30.2999 61.568 30.7209 60.397 30.7209C59.133 30.7209 58.225 30.2669 57.672 29.3589H57.632V34.4139H55.5V24.0669C55.5 23.0409 55.473 21.9879 55.421 20.9079H57.296L57.415 22.4289H57.455C58.166 21.2829 59.245 20.7109 60.693 20.7109C61.825 20.7109 62.77 21.1579 63.526 22.0529C64.284 22.9489 64.662 24.1269 64.662 25.5879ZM62.49 25.6659C62.49 24.7319 62.28 23.9619 61.858 23.3559C61.397 22.7239 60.778 22.4079 60.002 22.4079C59.476 22.4079 58.998 22.5839 58.571 22.9309C58.143 23.2809 57.863 23.7379 57.732 24.3039C57.666 24.5679 57.633 24.7839 57.633 24.9539V26.5539C57.633 27.2519 57.847 27.8409 58.275 28.3219C58.703 28.8029 59.259 29.0429 59.943 29.0429C60.746 29.0429 61.371 28.7329 61.818 28.1149C62.266 27.4959 62.49 26.6799 62.49 25.6659Z" fill="#B1C3D3"/>
<path fill-rule="evenodd" clip-rule="evenodd" d="M75.699 25.5879C75.699 27.2199 75.258 28.5099 74.375 29.4569C73.586 30.2999 72.605 30.7209 71.434 30.7209C70.17 30.7209 69.262 30.2669 68.71 29.3589H68.67V34.4139H66.538V24.0669C66.538 23.0409 66.511 21.9879 66.459 20.9079H68.334L68.453 22.4289H68.493C69.203 21.2829 70.282 20.7109 71.731 20.7109C72.862 20.7109 73.807 21.1579 74.565 22.0529C75.32 22.9489 75.699 24.1269 75.699 25.5879ZM73.527 25.6659C73.527 24.7319 73.316 23.9619 72.894 23.3559C72.433 22.7239 71.816 22.4079 71.039 22.4079C70.512 22.4079 70.035 22.5839 69.607 22.9309C69.179 23.2809 68.9 23.7379 68.769 24.3039C68.704 24.5679 68.67 24.7839 68.67 24.9539V26.5539C68.67 27.2519 68.884 27.8409 69.31 28.3219C69.738 28.8019 70.294 29.0429 70.98 29.0429C71.783 29.0429 72.408 28.7329 72.855 28.1149C73.303 27.4959 73.527 26.6799 73.527 25.6659Z" fill="#B1C3D3"/>
<path fill-rule="evenodd" clip-rule="evenodd" d="M88.0391 26.772C88.0391 27.904 87.6461 28.825 86.8571 29.536C85.9901 30.313 84.7831 30.701 83.2321 30.701C81.8001 30.701 80.6521 30.425 79.7831 29.872L80.2771 28.095C81.2131 28.661 82.2401 28.945 83.3591 28.945C84.1621 28.945 84.7871 28.763 85.2361 28.401C85.6831 28.039 85.9061 27.553 85.9061 26.947C85.9061 26.407 85.7221 25.952 85.3531 25.583C84.9861 25.214 84.3731 24.871 83.5171 24.554C81.1871 23.685 80.0231 22.412 80.0231 20.738C80.0231 19.644 80.4311 18.747 81.2481 18.049C82.0621 17.35 83.1481 17.001 84.5061 17.001C85.7171 17.001 86.7231 17.212 87.5261 17.633L86.9931 19.371C86.2431 18.963 85.3951 18.759 84.4461 18.759C83.6961 18.759 83.1101 18.944 82.6901 19.312C82.3351 19.641 82.1571 20.042 82.1571 20.517C82.1571 21.043 82.3601 21.478 82.7681 21.82C83.1231 22.136 83.7681 22.478 84.7041 22.847C85.8491 23.308 86.6901 23.847 87.2311 24.465C87.7701 25.081 88.0391 25.852 88.0391 26.772Z" fill="#B1C3D3"/>
<path fill-rule="evenodd" clip-rule="evenodd" d="M95.088 22.5076H92.738V27.1666C92.738 28.3516 93.152 28.9436 93.982 28.9436C94.363 28.9436 94.679 28.9106 94.929 28.8446L94.988 30.4636C94.568 30.6206 94.015 30.6996 93.33 30.6996C92.488 30.6996 91.83 30.4426 91.355 29.9296C90.882 29.4156 90.644 28.5536 90.644 27.3426V22.5056H89.244V20.9056H90.644V19.1486L92.738 18.5166V20.9056H95.088V22.5076Z" fill="#B1C3D3"/>
<path fill-rule="evenodd" clip-rule="evenodd" d="M105.691 25.6269C105.691 27.1019 105.269 28.3129 104.427 29.2599C103.544 30.2349 102.372 30.7209 100.911 30.7209C99.503 30.7209 98.382 30.2539 97.546 29.3199C96.71 28.3859 96.292 27.2069 96.292 25.7859C96.292 24.2989 96.722 23.0809 97.585 22.1339C98.446 21.1859 99.608 20.7119 101.069 20.7119C102.477 20.7119 103.61 21.1789 104.465 22.1139C105.283 23.0209 105.691 24.1919 105.691 25.6269ZM103.479 25.6959C103.479 24.8109 103.29 24.0519 102.907 23.4189C102.46 22.6529 101.821 22.2709 100.993 22.2709C100.136 22.2709 99.485 22.6539 99.038 23.4189C98.655 24.0529 98.466 24.8239 98.466 25.7359C98.466 26.6209 98.655 27.3799 99.038 28.0119C99.499 28.7779 100.143 29.1599 100.974 29.1599C101.788 29.1599 102.427 28.7699 102.888 27.9919C103.281 27.3469 103.479 26.5799 103.479 25.6959Z" fill="#B1C3D3"/>
<path fill-rule="evenodd" clip-rule="evenodd" d="M112.621 22.7829C112.41 22.7439 112.185 22.7239 111.949 22.7239C111.199 22.7239 110.619 23.0069 110.211 23.5739C109.856 24.0739 109.678 24.7059 109.678 25.4689V30.5039H107.547L107.567 23.9299C107.567 22.8239 107.54 21.8169 107.487 20.9089H109.344L109.422 22.7449H109.481C109.706 22.1139 110.061 21.6059 110.547 21.2249C111.022 20.8819 111.535 20.7109 112.088 20.7109C112.285 20.7109 112.463 20.7249 112.621 20.7499V22.7829Z" fill="#B1C3D3"/>
<path fill-rule="evenodd" clip-rule="evenodd" d="M122.156 25.2524C122.156 25.6344 122.131 25.9564 122.078 26.2194H115.682C115.707 27.1674 116.016 27.8924 116.61 28.3924C117.149 28.8394 117.846 29.0634 118.702 29.0634C119.649 29.0634 120.513 28.9124 121.29 28.6094L121.624 30.0894C120.716 30.4854 119.644 30.6824 118.407 30.6824C116.919 30.6824 115.751 30.2444 114.901 29.3694C114.053 28.4944 113.628 27.3194 113.628 25.8454C113.628 24.3984 114.023 23.1934 114.814 22.2324C115.642 21.2064 116.761 20.6934 118.169 20.6934C119.552 20.6934 120.599 21.2064 121.31 22.2324C121.873 23.0474 122.156 24.0554 122.156 25.2524ZM120.123 24.6994C120.137 24.0674 119.998 23.5214 119.709 23.0604C119.34 22.4674 118.773 22.1714 118.01 22.1714C117.313 22.1714 116.746 22.4604 116.313 23.0404C115.958 23.5014 115.747 24.0544 115.682 24.6984H120.123V24.6994Z" fill="#B1C3D3"/>
<path fill-rule="evenodd" clip-rule="evenodd" d="M49.05 10.0087C49.05 11.1857 48.697 12.0717 47.992 12.6667C47.339 13.2157 46.411 13.4907 45.209 13.4907C44.613 13.4907 44.103 13.4647 43.676 13.4127V6.9817C44.233 6.8917 44.833 6.8457 45.481 6.8457C46.626 6.8457 47.489 7.0947 48.071 7.5927C48.723 8.1557 49.05 8.9607 49.05 10.0087ZM47.945 10.0377C47.945 9.2747 47.743 8.6897 47.339 8.2817C46.935 7.8747 46.345 7.6707 45.568 7.6707C45.238 7.6707 44.957 7.6927 44.724 7.7387V12.6277C44.853 12.6477 45.089 12.6567 45.432 12.6567C46.234 12.6567 46.853 12.4337 47.289 11.9877C47.725 11.5417 47.945 10.8917 47.945 10.0377Z" fill="#B1C3D3"/>
<path fill-rule="evenodd" clip-rule="evenodd" d="M54.909 11.037C54.909 11.762 54.702 12.356 54.288 12.822C53.854 13.301 53.279 13.54 52.561 13.54C51.869 13.54 51.318 13.311 50.907 12.851C50.497 12.392 50.292 11.813 50.292 11.115C50.292 10.385 50.503 9.78605 50.927 9.32105C51.351 8.85605 51.921 8.62305 52.639 8.62305C53.331 8.62305 53.887 8.85205 54.308 9.31105C54.708 9.75705 54.909 10.333 54.909 11.037ZM53.822 11.071C53.822 10.636 53.728 10.263 53.541 9.95205C53.321 9.57605 53.008 9.38805 52.601 9.38805C52.18 9.38805 51.86 9.57605 51.64 9.95205C51.452 10.263 51.359 10.642 51.359 11.09C51.359 11.525 51.453 11.898 51.64 12.209C51.867 12.585 52.183 12.773 52.591 12.773C52.991 12.773 53.305 12.582 53.531 12.199C53.725 11.882 53.822 11.506 53.822 11.071Z" fill="#B1C3D3"/>
<path fill-rule="evenodd" clip-rule="evenodd" d="M62.7651 8.71875L61.2901 13.4327H60.3301L59.7191 11.3858C59.5641 10.8748 59.4381 10.3667 59.3401 9.86275H59.3211C59.2301 10.3807 59.1041 10.8878 58.9421 11.3858L58.2931 13.4327H57.3221L55.9351 8.71875H57.0121L57.5451 10.9597C57.6741 11.4897 57.7801 11.9947 57.8651 12.4727H57.8841C57.9621 12.0787 58.0911 11.5767 58.2731 10.9697L58.9421 8.71975H59.7961L60.4371 10.9217C60.5921 11.4587 60.7181 11.9757 60.8151 12.4737H60.8441C60.9151 11.9887 61.0221 11.4717 61.1641 10.9217L61.7361 8.71975H62.7651V8.71875Z" fill="#B1C3D3"/>
<path fill-rule="evenodd" clip-rule="evenodd" d="M68.198 13.4331H67.15V10.7331C67.15 9.90112 66.834 9.48512 66.2 9.48512C65.889 9.48512 65.638 9.59912 65.443 9.82812C65.25 10.0571 65.152 10.3271 65.152 10.6361V13.4321H64.104V10.0661C64.104 9.65212 64.091 9.20312 64.066 8.71712H64.987L65.036 9.45412H65.065C65.187 9.22512 65.369 9.03612 65.608 8.88512C65.892 8.70912 66.21 8.62012 66.558 8.62012C66.998 8.62012 67.364 8.76212 67.655 9.04712C68.017 9.39612 68.198 9.91712 68.198 10.6091V13.4331Z" fill="#B1C3D3"/>
<path fill-rule="evenodd" clip-rule="evenodd" d="M71.088 13.4327H70.041V6.55566H71.088V13.4327Z" fill="#B1C3D3"/>
<path fill-rule="evenodd" clip-rule="evenodd" d="M77.258 11.037C77.258 11.762 77.051 12.356 76.637 12.822C76.203 13.301 75.627 13.54 74.91 13.54C74.217 13.54 73.666 13.311 73.256 12.851C72.846 12.392 72.641 11.813 72.641 11.115C72.641 10.385 72.852 9.78605 73.276 9.32105C73.7 8.85605 74.27 8.62305 74.987 8.62305C75.68 8.62305 76.235 8.85205 76.657 9.31105C77.057 9.75705 77.258 10.333 77.258 11.037ZM76.17 11.071C76.17 10.636 76.076 10.263 75.889 9.95205C75.67 9.57605 75.356 9.38805 74.95 9.38805C74.528 9.38805 74.208 9.57605 73.989 9.95205C73.801 10.263 73.708 10.642 73.708 11.09C73.708 11.525 73.802 11.898 73.989 12.209C74.216 12.585 74.532 12.773 74.94 12.773C75.34 12.773 75.653 12.582 75.879 12.199C76.074 11.882 76.17 11.506 76.17 11.071Z" fill="#B1C3D3"/>
<path fill-rule="evenodd" clip-rule="evenodd" d="M82.3301 13.433H81.3891L81.3111 12.89H81.2821C80.9601 13.323 80.5011 13.54 79.9051 13.54C79.4601 13.54 79.1001 13.397 78.8291 13.113C78.5831 12.855 78.4601 12.534 78.4601 12.153C78.4601 11.577 78.7001 11.138 79.1831 10.834C79.6651 10.53 80.3431 10.381 81.2161 10.388V10.3C81.2161 9.67905 80.8901 9.36905 80.2371 9.36905C79.7721 9.36905 79.3621 9.48605 79.0081 9.71805L78.7951 9.03005C79.2331 8.75905 79.7741 8.62305 80.4121 8.62305C81.6441 8.62305 82.2621 9.27305 82.2621 10.573V12.309C82.2621 12.78 82.2851 13.155 82.3301 13.433ZM81.2421 11.813V11.086C80.0861 11.066 79.5081 11.383 79.5081 12.036C79.5081 12.282 79.5741 12.466 79.7091 12.589C79.8441 12.712 80.0161 12.773 80.2211 12.773C80.4511 12.773 80.6661 12.7 80.8621 12.555C81.0591 12.409 81.1801 12.224 81.2251 11.997C81.2361 11.946 81.2421 11.884 81.2421 11.813Z" fill="#B1C3D3"/>
<path fill-rule="evenodd" clip-rule="evenodd" d="M88.285 13.4327H87.355L87.306 12.6757H87.277C86.98 13.2517 86.474 13.5397 85.763 13.5397C85.195 13.5397 84.722 13.3167 84.347 12.8707C83.972 12.4247 83.785 11.8457 83.785 11.1347C83.785 10.3717 83.988 9.75366 84.396 9.28166C84.791 8.84166 85.275 8.62166 85.851 8.62166C86.484 8.62166 86.927 8.83466 87.179 9.26166H87.199V6.55566H88.248V12.1627C88.248 12.6217 88.26 13.0447 88.285 13.4327ZM87.199 11.4447V10.6587C87.199 10.5227 87.189 10.4127 87.17 10.3287C87.111 10.0767 86.984 9.86466 86.791 9.69366C86.596 9.52266 86.361 9.43666 86.09 9.43666C85.699 9.43666 85.393 9.59166 85.168 9.90266C84.945 10.2137 84.832 10.6107 84.832 11.0957C84.832 11.5617 84.939 11.9397 85.154 12.2307C85.381 12.5407 85.687 12.6957 86.07 12.6957C86.414 12.6957 86.689 12.5667 86.898 12.3077C87.1 12.0687 87.199 11.7807 87.199 11.4447Z" fill="#B1C3D3"/>
<path fill-rule="evenodd" clip-rule="evenodd" d="M97.248 11.037C97.248 11.762 97.041 12.356 96.627 12.822C96.193 13.301 95.619 13.54 94.9 13.54C94.209 13.54 93.658 13.311 93.246 12.851C92.836 12.392 92.631 11.813 92.631 11.115C92.631 10.385 92.842 9.78605 93.266 9.32105C93.69 8.85605 94.26 8.62305 94.979 8.62305C95.67 8.62305 96.227 8.85205 96.647 9.31105C97.047 9.75705 97.248 10.333 97.248 11.037ZM96.162 11.071C96.162 10.636 96.068 10.263 95.881 9.95205C95.66 9.57605 95.348 9.38805 94.94 9.38805C94.52 9.38805 94.2 9.57605 93.979 9.95205C93.791 10.263 93.698 10.642 93.698 11.09C93.698 11.525 93.792 11.898 93.979 12.209C94.206 12.585 94.522 12.773 94.93 12.773C95.33 12.773 95.645 12.582 95.871 12.199C96.064 11.882 96.162 11.506 96.162 11.071Z" fill="#B1C3D3"/>
<path fill-rule="evenodd" clip-rule="evenodd" d="M102.883 13.4331H101.836V10.7331C101.836 9.90112 101.52 9.48512 100.885 9.48512C100.574 9.48512 100.323 9.59912 100.129 9.82812C99.9351 10.0571 99.8381 10.3271 99.8381 10.6361V13.4321H98.7891V10.0661C98.7891 9.65212 98.7771 9.20312 98.7521 8.71712H99.6721L99.7211 9.45412H99.7501C99.8731 9.22512 100.055 9.03612 100.293 8.88512C100.578 8.70912 100.895 8.62012 101.244 8.62012C101.683 8.62012 102.049 8.76212 102.34 9.04712C102.703 9.39612 102.883 9.91712 102.883 10.6091V13.4331Z" fill="#B1C3D3"/>
<path fill-rule="evenodd" clip-rule="evenodd" d="M109.936 9.50392H108.782V11.7939C108.782 12.3759 108.987 12.6669 109.393 12.6669C109.581 12.6669 109.737 12.6509 109.86 12.6179L109.887 13.4129C109.68 13.4909 109.408 13.5299 109.073 13.5299C108.659 13.5299 108.337 13.4039 108.104 13.1519C107.87 12.8999 107.754 12.4759 107.754 11.8809V9.50392H107.065V8.71892H107.754V7.85492L108.781 7.54492V8.71792H109.935V9.50392H109.936Z" fill="#B1C3D3"/>
<path fill-rule="evenodd" clip-rule="evenodd" d="M115.484 13.4327H114.435V10.7527C114.435 9.90766 114.119 9.48466 113.486 9.48466C113 9.48466 112.668 9.72966 112.486 10.2197C112.455 10.3227 112.437 10.4487 112.437 10.5967V13.4317H111.39V6.55566H112.437V9.39666H112.457C112.787 8.87966 113.26 8.62166 113.873 8.62166C114.307 8.62166 114.666 8.76366 114.951 9.04866C115.306 9.40366 115.484 9.93166 115.484 10.6297V13.4327Z" fill="#B1C3D3"/>
<path fill-rule="evenodd" clip-rule="evenodd" d="M121.207 10.8523C121.207 11.0403 121.193 11.1983 121.168 11.3273H118.025C118.039 11.7933 118.189 12.1483 118.48 12.3943C118.746 12.6143 119.089 12.7243 119.509 12.7243C119.974 12.7243 120.398 12.6503 120.78 12.5013L120.944 13.2293C120.497 13.4233 119.971 13.5203 119.362 13.5203C118.632 13.5203 118.057 13.3053 117.641 12.8753C117.223 12.4453 117.016 11.8683 117.016 11.1443C117.016 10.4333 117.209 9.84128 117.598 9.36928C118.004 8.86528 118.553 8.61328 119.246 8.61328C119.924 8.61328 120.439 8.86528 120.787 9.36928C121.068 9.76928 121.207 10.2643 121.207 10.8523ZM120.207 10.5813C120.215 10.2703 120.146 10.0023 120.004 9.77628C119.822 9.48528 119.545 9.33928 119.17 9.33928C118.828 9.33928 118.549 9.48128 118.336 9.76628C118.162 9.99328 118.059 10.2643 118.025 10.5813H120.207Z" fill="#B1C3D3"/>
</svg>
